<?xml version="1.0" encoding="UTF-8" standalone="no"?>
<svg width="15px" height="12px" viewBox="0 0 15 12" version="1.1" xmlns="http://www.w3.org/2000/svg" xmlns:xlink="http://www.w3.org/1999/xlink" xmlns:sketch="http://www.bohemiancoding.com/sketch/ns">
    <!-- Generator: Sketch 3.2.1 (9971) - http://www.bohemiancoding.com/sketch -->
    <title>Artboard 1</title>
    <desc>Created with Sketch.</desc>
    <defs></defs>
    <g id="Page-1" stroke="none" stroke-width="1" fill="none" fill-rule="evenodd" sketch:type="MSPage">
        <g id="Artboard-1" sketch:type="MSArtboardGroup" fill="#FFFFFF">
            <path d="M13.265625,9.49804688 L13.265625,4.48828125 L14.671875,3.30175781 L14.671875,11.625 L0.328125,11.625 L0.328125,3.02929688 L1.734375,4.22460938 L1.734375,9.50683594 L4.41503906,6.13183594 L5.54882812,6.96679688 L2.96484375,10.21875 L12.0439453,10.21875 L9.59179688,7.14257812 L10.7255859,6.30761719 L13.265625,9.49804688 Z M0.328125,0.375 L14.671875,0.375 L14.671875,1.83398438 L9.01171875,6.14941406 C8.64843568,6.41894666 8.20605729,6.55371094 7.68457031,6.55371094 C7.16894273,6.55371094 6.729494,6.41894666 6.36621094,6.14941406 L0.328125,1.56152344 L0.328125,0.375 Z M8.17675781,5.04199219 L12.5800781,1.78125 L2.79785156,1.78125 L7.20117188,5.04199219 C7.33007877,5.13574266 7.4926748,5.18261719 7.68896484,5.18261719 C7.88525489,5.18261719 8.04785092,5.13574266 8.17675781,5.04199219 L8.17675781,5.04199219 Z" id="✉" sketch:type="MSShapeGroup"></path>
        </g>
    </g>
</svg>