<?xml version="1.0" encoding="UTF-8" standalone="no"?>
<svg width="140px" height="9px" viewBox="0 0 140 9" version="1.1" xmlns="http://www.w3.org/2000/svg" xmlns:xlink="http://www.w3.org/1999/xlink" xmlns:sketch="http://www.bohemiancoding.com/sketch/ns">
    <!-- Generator: Sketch 3.2.1 (9971) - http://www.bohemiancoding.com/sketch -->
    <title>Artboard 1</title>
    <desc>Created with Sketch.</desc>
    <defs></defs>
    <g id="Page-1" stroke="none" stroke-width="1" fill="none" fill-rule="evenodd" sketch:type="MSPage">
        <g id="Artboard-1" sketch:type="MSArtboardGroup" fill="#B3C4D7">
            <path d="M4.06401053,2.48448675 L4.06401053,3.13746689 L3.5638,3.13746689 L3.5638,2.45071192 C3.5638,1.60577815 3.23411579,0.964619205 2.35874737,0.964619205 C1.48281053,0.964619205 1.15255789,1.60577815 1.15255789,2.45071192 L1.15255789,6.54985099 C1.15255789,7.39422185 1.48281053,8.02468543 2.35874737,8.02468543 C3.23411579,8.02468543 3.5638,7.39422185 3.5638,6.54985099 L3.5638,5.61541391 L4.06401053,5.61541391 L4.06401053,6.51551325 C4.06401053,7.65316225 3.5638,8.50879139 2.34681053,8.50879139 C1.12982105,8.50879139 0.630178947,7.65316225 0.630178947,6.51551325 L0.630178947,2.48448675 C0.630178947,1.34683775 1.12982105,0.491208609 2.34681053,0.491208609 C3.5638,0.491208609 4.06401053,1.34683775 4.06401053,2.48448675 L4.06401053,2.48448675 Z M8.29192632,2.48448675 C8.29192632,1.33614238 8.82624211,0.491208609 10.0318632,0.491208609 C11.2596526,0.491208609 11.7939684,1.33614238 11.7939684,2.48448675 L11.7939684,6.51551325 C11.7939684,7.66442053 11.2596526,8.50879139 10.0318632,8.50879139 C8.82624211,8.50879139 8.29192632,7.66442053 8.29192632,6.51551325 L8.29192632,2.48448675 L8.29192632,2.48448675 Z M8.81487368,6.54985099 C8.81487368,7.40548013 9.15649474,8.03594371 10.0318632,8.03594371 C10.9186,8.03594371 11.2710211,7.40548013 11.2710211,6.54985099 L11.2710211,2.45071192 C11.2710211,1.59508278 10.9186,0.964619205 10.0318632,0.964619205 C9.15649474,0.964619205 8.81487368,1.59508278 8.81487368,2.45071192 L8.81487368,6.54985099 L8.81487368,6.54985099 Z M18.7400737,8.43054636 L18.2171263,8.43054636 L16.5340316,1.45998344 L16.5340316,8.44124172 L16.0679263,8.44124172 L16.0679263,0.558758278 L16.8182421,0.558758278 L18.4899684,7.52932119 L20.1497579,0.558758278 L20.9006421,0.558758278 L20.9006421,8.44124172 L20.4004316,8.44124172 L20.4004316,1.43746689 L18.7400737,8.43054636 L18.7400737,8.43054636 Z M27.8916526,8.43054636 L27.3687053,8.43054636 L25.6856105,1.45998344 L25.6856105,8.44124172 L25.2189368,8.44124172 L25.2189368,0.558758278 L25.9698211,0.558758278 L27.6415474,7.52932119 L29.3013368,0.558758278 L30.0516526,0.558758278 L30.0516526,8.44124172 L29.5520105,8.44124172 L29.5520105,1.43746689 L27.8916526,8.43054636 L27.8916526,8.43054636 Z M37.0659684,4.20756623 L37.0659684,4.67985099 L34.8946,4.67985099 L34.8946,7.96839404 L37.5093368,7.96839404 L37.5093368,8.44124172 L34.3710842,8.44124172 L34.3710842,0.558758278 L37.5093368,0.558758278 L37.5093368,1.03216887 L34.8946,1.03216887 L34.8946,4.20756623 L37.0659684,4.20756623 L37.0659684,4.20756623 Z M43.4317158,0.558758278 C44.6487053,0.558758278 45.1375474,1.2235596 45.1375474,2.33812914 L45.1375474,3.02488411 C45.1375474,3.94862583 44.7737579,4.4777649 43.9893368,4.65733444 C44.8078632,4.8380298 45.1375474,5.41220199 45.1375474,6.26839404 L45.1375474,7.49554636 C45.1375474,7.82203642 45.1602842,8.18230132 45.3308105,8.44124172 L44.7851263,8.44124172 C44.6487053,8.20481788 44.6140316,7.92336093 44.6140316,7.49554636 L44.6140316,6.25657285 C44.6140316,5.20955298 44.0348105,4.91683775 43.1247684,4.91683775 L42.2948737,4.91683775 L42.2948737,8.44124172 L41.7713579,8.44124172 L41.7713579,0.558758278 L43.4317158,0.558758278 L43.4317158,0.558758278 Z M43.1361368,4.44342715 C44.0683474,4.44342715 44.6140316,4.18504967 44.6140316,3.12677152 L44.6140316,2.38316225 C44.6140316,1.53822848 44.2843474,1.03216887 43.4209158,1.03216887 L42.2948737,1.03216887 L42.2948737,4.44342715 L43.1361368,4.44342715 L43.1361368,4.44342715 Z M52.9703895,2.48448675 L52.9703895,3.13746689 L52.4701789,3.13746689 L52.4701789,2.45071192 C52.4701789,1.60577815 52.1404947,0.964619205 51.2651263,0.964619205 C50.3891895,0.964619205 50.0595053,1.60577815 50.0595053,2.45071192 L50.0595053,6.54985099 C50.0595053,7.39422185 50.3891895,8.02468543 51.2651263,8.02468543 C52.1404947,8.02468543 52.4701789,7.39422185 52.4701789,6.54985099 L52.4701789,5.61541391 L52.9703895,5.61541391 L52.9703895,6.51551325 C52.9703895,7.65316225 52.4701789,8.50879139 51.2531895,8.50879139 C50.0367684,8.50879139 49.5365579,7.65316225 49.5365579,6.51551325 L49.5365579,2.48448675 C49.5365579,1.34683775 50.0367684,0.491208609 51.2531895,0.491208609 C52.4701789,0.491208609 52.9703895,1.34683775 52.9703895,2.48448675 L52.9703895,2.48448675 Z M59.9272947,4.20756623 L59.9272947,4.67985099 L57.7559263,4.67985099 L57.7559263,7.96839404 L60.3706632,7.96839404 L60.3706632,8.44124172 L57.2324105,8.44124172 L57.2324105,0.558758278 L60.3706632,0.558758278 L60.3706632,1.03216887 L57.7559263,1.03216887 L57.7559263,4.20756623 L59.9272947,4.20756623 L59.9272947,4.20756623 Z M72.3870842,4.39839404 L72.3870842,4.87180464 L70.3294,4.87180464 L70.3294,8.44124172 L69.8058842,8.44124172 L69.8058842,0.558758278 L72.8304526,0.558758278 L72.8304526,1.03216887 L70.3294,1.03216887 L70.3294,4.39839404 L72.3870842,4.39839404 L72.3870842,4.39839404 Z M78.6959895,0.558758278 C79.9129789,0.558758278 80.4023895,1.2235596 80.4023895,2.33812914 L80.4023895,3.02488411 C80.4023895,3.94862583 80.0380316,4.4777649 79.2536105,4.65733444 C80.0721368,4.8380298 80.4023895,5.41220199 80.4023895,6.26839404 L80.4023895,7.49554636 C80.4023895,7.82203642 80.4245579,8.18230132 80.5950842,8.44124172 L80.0494,8.44124172 C79.9129789,8.20481788 79.8788737,7.92336093 79.8788737,7.49554636 L79.8788737,6.25657285 C79.8788737,5.20955298 79.2990842,4.91683775 78.3890421,4.91683775 L77.5591474,4.91683775 L77.5591474,8.44124172 L77.0362,8.44124172 L77.0362,0.558758278 L78.6959895,0.558758278 L78.6959895,0.558758278 Z M78.4004105,4.44342715 C79.3331895,4.44342715 79.8788737,4.18504967 79.8788737,3.12677152 L79.8788737,2.38316225 C79.8788737,1.53822848 79.5486211,1.03216887 78.6851895,1.03216887 L77.5591474,1.03216887 L77.5591474,4.44342715 L78.4004105,4.44342715 L78.4004105,4.44342715 Z M85.5966211,6.6956457 L85.1987263,8.44124172 L84.7212526,8.44124172 L86.4611895,0.548062914 L87.2223053,0.548062914 L88.9969158,8.44124172 L88.4734,8.44124172 L88.0749368,6.6956457 L85.5966211,6.6956457 L85.5966211,6.6956457 Z M85.6762,6.24587748 L87.9959263,6.24587748 L86.8244105,1.14418874 L85.6762,6.24587748 L85.6762,6.24587748 Z M95.8742421,8.43054636 L95.3512947,8.43054636 L93.6682,1.45998344 L93.6682,8.44124172 L93.2020947,8.44124172 L93.2020947,0.558758278 L93.9524105,0.558758278 L95.6247053,7.52932119 L97.2844947,0.558758278 L98.0348105,0.558758278 L98.0348105,8.44124172 L97.5346,8.44124172 L97.5346,1.43746689 L95.8742421,8.43054636 L95.8742421,8.43054636 Z M105.048558,4.20756623 L105.048558,4.67985099 L102.877189,4.67985099 L102.877189,7.96839404 L105.491926,7.96839404 L105.491926,8.44124172 L102.353674,8.44124172 L102.353674,0.558758278 L105.491926,0.558758278 L105.491926,1.03216887 L102.877189,1.03216887 L102.877189,4.20756623 L105.048558,4.20756623 L105.048558,4.20756623 Z M111.664411,8.44124172 L110.936832,8.44124172 L109.6522,0.558758278 L110.163779,0.558758278 L111.357463,7.74322848 L112.517042,0.593096026 L113.074663,0.593096026 L114.188768,7.72071192 L115.336979,0.558758278 L115.803653,0.558758278 L114.529821,8.44124172 L113.847716,8.44124172 L112.778516,1.98912252 L111.664411,8.44124172 L111.664411,8.44124172 Z M119.986095,2.48448675 C119.986095,1.33614238 120.520979,0.491208609 121.726032,0.491208609 C122.953821,0.491208609 123.488137,1.33614238 123.488137,2.48448675 L123.488137,6.51551325 C123.488137,7.66442053 122.953821,8.50879139 121.726032,8.50879139 C120.520979,8.50879139 119.986095,7.66442053 119.986095,6.51551325 L119.986095,2.48448675 L119.986095,2.48448675 Z M120.509042,6.54985099 C120.509042,7.40548013 120.850663,8.03594371 121.726032,8.03594371 C122.612768,8.03594371 122.965189,7.40548013 122.965189,6.54985099 L122.965189,2.45071192 C122.965189,1.59508278 122.612768,0.964619205 121.726032,0.964619205 C120.850663,0.964619205 120.509042,1.59508278 120.509042,2.45071192 L120.509042,6.54985099 L120.509042,6.54985099 Z M129.421884,0.558758278 C130.638305,0.558758278 131.127716,1.2235596 131.127716,2.33812914 L131.127716,3.02488411 C131.127716,3.94862583 130.763358,4.4777649 129.978937,4.65733444 C130.798032,4.8380298 131.127716,5.41220199 131.127716,6.26839404 L131.127716,7.49554636 C131.127716,7.82203642 131.150453,8.18230132 131.320979,8.44124172 L130.775295,8.44124172 C130.638305,8.20481788 130.6042,7.92336093 130.6042,7.49554636 L130.6042,6.25657285 C130.6042,5.20955298 130.024411,4.91683775 129.114937,4.91683775 L128.285042,4.91683775 L128.285042,8.44124172 L127.761526,8.44124172 L127.761526,0.558758278 L129.421884,0.558758278 L129.421884,0.558758278 Z M129.126305,4.44342715 C130.058516,4.44342715 130.6042,4.18504967 130.6042,3.12677152 L130.6042,2.38316225 C130.6042,1.53822848 130.274516,1.03216887 129.410516,1.03216887 L128.285042,1.03216887 L128.285042,4.44342715 L129.126305,4.44342715 L129.126305,4.44342715 Z M136.628895,4.7367053 L136.083779,5.59233444 L136.083779,8.44124172 L135.560263,8.44124172 L135.560263,0.558758278 L136.083779,0.558758278 L136.083779,4.72488411 L138.675779,0.558758278 L139.221463,0.558758278 L136.947211,4.22951987 L139.369821,8.44124172 L138.823568,8.44124172 L136.628895,4.7367053 L136.628895,4.7367053 Z" id="Fill-2" sketch:type="MSShapeGroup"></path>
        </g>
    </g>
</svg>