<?xml version="1.0" encoding="UTF-8" standalone="no"?>
<svg width="13px" height="15px" viewBox="0 0 13 15" version="1.1" xmlns="http://www.w3.org/2000/svg" xmlns:xlink="http://www.w3.org/1999/xlink" xmlns:sketch="http://www.bohemiancoding.com/sketch/ns">
    <!-- Generator: Sketch 3.2.1 (9971) - http://www.bohemiancoding.com/sketch -->
    <title>Artboard 1</title>
    <desc>Created with Sketch.</desc>
    <defs></defs>
    <g id="Page-1" stroke="none" stroke-width="1" fill="none" fill-rule="evenodd" sketch:type="MSPage">
        <g id="Artboard-1" sketch:type="MSArtboardGroup" fill="#FFFFFF">
            <path d="M6.5,8.90625 C6.85156426,8.90625 7.15038939,9.03076047 7.39648438,9.27978516 C7.64257936,9.52880984 7.765625,9.82617015 7.765625,10.171875 C7.765625,10.6230491 7.57812687,10.9746081 7.203125,11.2265625 L7.203125,12.28125 L5.796875,12.28125 L5.796875,11.2265625 C5.42187313,10.9746081 5.234375,10.6230491 5.234375,10.171875 C5.234375,9.82617015 5.35742064,9.52880984 5.60351562,9.27978516 C5.84961061,9.03076047 6.14843574,8.90625 6.5,8.90625 L6.5,8.90625 Z M11.140625,6.10253906 C11.6152367,6.13769549 12.0151351,6.33105293 12.340332,6.68261719 C12.665529,7.03418145 12.828125,7.44726325 12.828125,7.921875 L12.828125,12.984375 C12.828125,13.4882838 12.6494158,13.9189435 12.2919922,14.2763672 C11.9345685,14.6337908 11.5039088,14.8125 11,14.8125 L2,14.8125 C1.49609123,14.8125 1.06543147,14.6337908 0.708007812,14.2763672 C0.35058415,13.9189435 0.171875,13.4882838 0.171875,12.984375 L0.171875,7.921875 C0.171875,7.44726325 0.33447103,7.03418145 0.659667969,6.68261719 C0.984864907,6.33105293 1.38476325,6.13769549 1.859375,6.10253906 L1.859375,4.828125 C1.859375,3.99023019 2.06738073,3.21533559 2.48339844,2.50341797 C2.89941614,1.79150035 3.46337535,1.22754114 4.17529297,0.811523438 C4.88721059,0.395505732 5.66210519,0.1875 6.5,0.1875 C7.33789481,0.1875 8.11278941,0.395505732 8.82470703,0.811523438 C9.53662465,1.22754114 10.1005839,1.79150035 10.5166016,2.50341797 C10.9326193,3.21533559 11.140625,3.99023019 11.140625,4.828125 L11.140625,6.10253906 Z M11.421875,12.984375 L11.421875,7.921875 C11.421875,7.80468691 11.3808598,7.70507854 11.2988281,7.62304688 C11.2167965,7.54101521 11.1171881,7.5 11,7.5 L4.390625,7.5 L4.390625,6.09375 L9.734375,6.09375 L9.734375,4.828125 C9.734375,3.93749555 9.41797191,3.17578441 8.78515625,2.54296875 C8.15234059,1.91015309 7.39062945,1.59375 6.5,1.59375 C5.60937055,1.59375 4.84765941,1.91015309 4.21484375,2.54296875 C3.58202809,3.17578441 3.265625,3.93749555 3.265625,4.828125 L3.265625,7.5 L2,7.5 C1.88281191,7.5 1.78320354,7.54101521 1.70117188,7.62304688 C1.61914021,7.70507854 1.578125,7.80468691 1.578125,7.921875 L1.578125,12.984375 C1.578125,13.1015631 1.61914021,13.2011715 1.70117188,13.2832031 C1.78320354,13.3652348 1.88281191,13.40625 2,13.40625 L11,13.40625 C11.1171881,13.40625 11.2167965,13.3652348 11.2988281,13.2832031 C11.3808598,13.2011715 11.421875,13.1015631 11.421875,12.984375 L11.421875,12.984375 Z" id="🔒" sketch:type="MSShapeGroup"></path>
        </g>
    </g>
</svg>