<?xml version="1.0" encoding="UTF-8" standalone="no"?>
<svg width="162px" height="154px" viewBox="0 0 162 154" version="1.1" xmlns="http://www.w3.org/2000/svg" xmlns:xlink="http://www.w3.org/1999/xlink" xmlns:sketch="http://www.bohemiancoding.com/sketch/ns">
    <!-- Generator: Sketch 3.2.1 (9971) - http://www.bohemiancoding.com/sketch -->
    <title>Artboard 1</title>
    <desc>Created with Sketch.</desc>
    <defs></defs>
    <g id="Page-1" stroke="none" stroke-width="1" fill="none" fill-rule="evenodd" sketch:type="MSPage">
        <g id="Artboard-1" sketch:type="MSArtboardGroup">
            <g id="Group" sketch:type="MSLayerGroup">
                <path d="M5.62736842,129 C9.27663158,129 11.1524211,131.161026 11.1524211,134.943808 L11.1524211,135.686854 L7.60547368,135.686854 L7.60547368,134.707384 C7.60547368,133.019205 6.92336842,132.377483 5.72968421,132.377483 C4.536,132.377483 3.85389474,133.019205 3.85389474,134.707384 C3.85389474,139.57096 11.1865263,140.482881 11.1865263,147.237848 C11.1865263,151.020629 9.27663158,153.182219 5.59326316,153.182219 C1.91046316,153.182219 0,151.020629 0,147.237848 L0,145.78553 L3.54751579,145.78553 L3.54751579,147.474272 C3.54751579,149.163013 4.29726316,149.77096 5.49094737,149.77096 C6.68463158,149.77096 7.43437895,149.163013 7.43437895,147.474272 C7.43437895,142.610695 0.102315789,141.698775 0.102315789,134.943808 C0.102315789,131.161026 1.97810526,129 5.62736842,129 L5.62736842,129 Z M36.0486947,135.113245 L36.0486947,138.186192 C36.0486947,141.968974 34.2075789,144.029238 30.4554316,144.029238 L28.6825263,144.029238 L28.6825263,152.911457 L24.9309474,152.911457 L24.9309474,129.270199 L30.4554316,129.270199 C34.2075789,129.270199 36.0486947,131.330464 36.0486947,135.113245 L36.0486947,135.113245 Z M28.6825263,132.647682 L28.6825263,140.651755 L30.4554316,140.651755 C31.6496842,140.651755 32.2976842,140.111358 32.2976842,138.423179 L32.2976842,134.876821 C32.2976842,133.188079 31.6496842,132.647682 30.4554316,132.647682 L28.6825263,132.647682 L28.6825263,132.647682 Z M57.3985895,152.911457 C57.1939579,152.30351 57.0575368,151.93255 57.0575368,150.007384 L57.0575368,146.291589 C57.0575368,144.096788 56.3072211,143.286192 54.6019579,143.286192 L53.3065263,143.286192 L53.3065263,152.911457 L49.5549474,152.911457 L49.5549474,129.270199 L55.2158526,129.270199 C59.1038526,129.270199 60.7744421,131.060265 60.7744421,134.707384 L60.7744421,136.565 C60.7744421,138.996788 59.9905895,140.584768 58.3194316,141.361026 C60.1952211,142.137848 60.8091158,143.927914 60.8091158,146.393477 L60.8091158,150.040596 C60.8091158,151.18894 60.8432211,152.033311 61.2183789,152.911457 L57.3985895,152.911457 L57.3985895,152.911457 Z M53.3065263,132.647682 L53.3065263,139.908709 L54.7724842,139.908709 C56.1708,139.908709 57.0234316,139.300762 57.0234316,137.409371 L57.0234316,135.078907 C57.0234316,133.390166 56.4436421,132.647682 55.1135368,132.647682 L53.3065263,132.647682 L53.3065263,132.647682 Z M78.0328421,145.076258 L73.2922105,129.270199 L77.2137474,129.270199 L80.0785895,140.044371 L82.9434316,129.270199 L86.5244842,129.270199 L81.7838526,145.076258 L81.7838526,152.911457 L78.0328421,152.911457 L78.0328421,145.076258 L78.0328421,145.076258 Z M104.532063,143.488841 L103.372484,145.65043 L103.372484,152.911457 L99.6203368,152.911457 L99.6203368,129.270199 L103.372484,129.270199 L103.372484,139.57096 L108.283074,129.270199 L112.034653,129.270199 L106.816547,139.807384 L112.034653,152.911457 L108.180758,152.911457 L104.532063,143.488841 L104.532063,143.488841 Z M129.087284,139.233212 L134.237179,139.233212 L134.237179,142.610695 L129.087284,142.610695 L129.087284,149.533974 L135.567284,149.533974 L135.567284,152.911457 L125.335705,152.911457 L125.335705,129.270199 L135.567284,129.270199 L135.567284,132.647682 L129.087284,132.647682 L129.087284,139.233212 L129.087284,139.233212 Z M157.326442,152.911457 C157.121811,152.30351 156.985389,151.93255 156.985389,150.007384 L156.985389,146.291589 C156.985389,144.096788 156.235074,143.286192 154.529811,143.286192 L153.234379,143.286192 L153.234379,152.911457 L149.4828,152.911457 L149.4828,129.270199 L155.143705,129.270199 C159.031705,129.270199 160.702295,131.060265 160.702295,134.707384 L160.702295,136.565 C160.702295,138.996788 159.917874,140.584768 158.247284,141.361026 C160.123074,142.137848 160.736968,143.927914 160.736968,146.393477 L160.736968,150.040596 C160.736968,151.18894 160.770505,152.033311 161.146232,152.911457 L157.326442,152.911457 L157.326442,152.911457 Z M153.234379,132.647682 L153.234379,139.908709 L154.700337,139.908709 C156.098653,139.908709 156.951284,139.300762 156.951284,137.409371 L156.951284,135.078907 C156.951284,133.390166 156.371495,132.647682 155.041389,132.647682 L153.234379,132.647682 L153.234379,132.647682 Z" id="Fill-1" fill="#F5F6F8" sketch:type="MSShapeGroup"></path>
                <path d="M85.3768,108 C85.1113474,108.193079 84.7839368,108.401358 84.4508421,108.62596 C84.1222947,108.847748 83.7886316,109.085298 83.5015789,109.341424 C83.2185053,109.593046 82.9803368,109.863245 82.8348211,110.154834 C82.6915789,110.443046 82.6381474,110.753212 82.7222737,111.090397 C82.7370526,111.150066 82.7541053,111.208609 82.7717263,111.267152 C82.7899158,111.325132 82.8098105,111.383113 82.8302737,111.439967 C82.8513053,111.496821 82.8734737,111.553675 82.8962105,111.609404 C82.9195158,111.665132 82.9439579,111.720861 82.9684,111.776026 C82.7495579,112.095762 82.5659579,112.422252 82.3863368,112.72904 C82.2084211,113.031887 82.0339158,113.316722 81.8309895,113.558775 C81.6309053,113.798013 81.4029684,113.996159 81.1170526,114.12957 C80.8351158,114.261854 80.4963368,114.331093 80.0734316,114.314768 C79.6584842,114.299007 79.2588842,114.22245 78.8712211,114.098609 C78.4875368,113.975894 78.1140842,113.806457 77.7508632,113.603808 C77.3893474,113.402848 77.0357895,113.16755 76.6907579,112.91255 C76.3462947,112.658113 76.0092211,112.383411 75.6789684,112.101391 C75.6710105,112.061424 75.6624842,112.021457 75.6533895,111.980927 C75.6448632,111.94096 75.6352,111.90043 75.6249684,111.859901 C75.6141684,111.819371 75.6033684,111.778278 75.5914316,111.737185 C75.5794947,111.696093 75.5664211,111.654437 75.5527789,111.612781 C75.4533053,111.310497 75.3100632,111.035232 75.1344211,110.781921 C74.9582105,110.528046 74.7501684,110.297815 74.5216632,110.086159 C74.2931579,109.875066 74.0441895,109.68255 73.7866947,109.504669 C73.5297684,109.327351 73.2637474,109.164669 73,109.010993 C73.0034105,109.018311 73.0062526,109.025629 73.0102316,109.03351 C73.0136421,109.040828 73.0170526,109.048709 73.0204632,109.056026 C73.0238737,109.063907 73.0272842,109.071225 73.0312632,109.079106 C73.0346737,109.086987 73.0380842,109.09543 73.0414947,109.103311 C73.0545684,109.151722 73.0676421,109.200695 73.0818526,109.249669 C73.0954947,109.299205 73.1102737,109.348179 73.1256211,109.397715 C73.1404,109.447252 73.1557474,109.496788 73.1722316,109.546325 C73.1881474,109.595861 73.2052,109.645397 73.2228211,109.695497 C73.5041895,110.503278 73.9072,111.258146 74.3943368,111.937583 C74.8786316,112.612517 75.4516,113.219901 76.0808421,113.733841 C76.7123579,114.250596 77.4069684,114.678411 78.1328421,114.988013 C78.8695158,115.302682 79.6454105,115.499139 80.4281263,115.543609 C81.2318737,115.589205 81.9856,115.454106 82.6603158,115.167583 C83.3566316,114.872616 83.9705263,114.416093 84.4639158,113.831225 C84.9737895,113.227781 85.3546316,112.48755 85.5598316,111.652748 C85.7712842,110.792616 85.7957263,109.837351 85.5837053,108.840993 L85.3768,108" id="Fill-3" fill="#F5F6F8" sketch:type="MSShapeGroup"></path>
                <path d="M54.1243158,69.372649 C54.0418947,69.4086755 53.9600421,69.4469536 53.8781895,69.4869205 C53.7963368,69.5274503 53.7144842,69.5696689 53.6332,69.6141391 C53.5519158,69.6586093 53.4712,69.7047682 53.3904842,69.7531788 C53.3097684,69.8015894 53.2290526,69.8522517 53.1489053,69.9051656 C52.7044,70.1973179 52.2900211,70.4821523 51.9017895,70.7855629 C51.5152632,71.0872848 51.1543158,71.4070199 50.8138316,71.7712252 C50.4750526,72.1331788 50.1573053,72.5396026 49.8560421,73.0141391 C49.5553474,73.4869868 49.2717053,74.027947 49,74.662351 C49.7554316,74.5565232 50.5222316,74.5570861 51.2958526,74.6617881 C52.0774316,74.767053 52.8664,74.9781457 53.6587789,75.2911258 C54.4585474,75.6074834 55.2622947,76.0274172 56.0643368,76.5481126 C56.8749053,77.0744371 57.6837684,77.702649 58.4869474,78.4293709 L55.264,69 C55.1673684,69.0208278 55.0718737,69.0444702 54.9758105,69.0703642 C54.8803158,69.0962583 54.7853895,69.1249669 54.6904632,69.1559272 C54.5955368,69.1868874 54.5006105,69.2206623 54.4062526,69.2566887 C54.3118947,69.2927152 54.2181053,69.3309934 54.1243158,69.372649" id="Fill-4" fill="#F5F6F8" sketch:type="MSShapeGroup"></path>
                <path d="M57,69 L60.1609895,78.1788742 L67.1815579,78.2790728 C66.4403368,76.8194371 65.6479579,75.5112252 64.8197684,74.3690728 C63.9989684,73.237053 63.1440632,72.2699669 62.2704,71.4813245 C61.4046947,70.7005629 60.5208,70.0948675 59.6334947,69.6771854 C58.7547158,69.2634437 57.8725263,69.0343377 57,69" id="Fill-5" fill="#F5F6F8" sketch:type="MSShapeGroup"></path>
                <path d="M61,81 C62.0811368,82.2693709 63.1412421,83.7154967 64.1672421,85.3288079 C65.2051789,86.9606954 66.2073053,88.760894 67.1599789,90.7175828 C68.1228842,92.6939735 69.0340632,94.8274172 69.8798737,97.1032781 C70.7330737,99.3977152 71.5180632,101.833444 72.2212,104.393576 C72.2706526,103.275066 72.2848632,102.130099 72.2626947,100.964868 C72.2399579,99.7990728 72.1808421,98.6130132 72.0836421,97.4140066 C71.9870105,96.2155629 71.8517263,95.0041722 71.6783579,93.7865894 C71.5049895,92.5706954 71.2924,91.3491722 71.0405895,90.1293377 C70.8712,89.310298 70.6870316,88.5092715 70.4897895,87.7256954 C70.2925474,86.9443709 70.0822316,86.1810596 69.8594105,85.4374503 C69.6371579,84.6955298 69.4029684,83.9733113 69.1574105,83.2713576 C68.9124211,82.5716556 68.6566316,81.8927815 68.3911789,81.235298 L61,81" id="Fill-6" fill="#F5F6F8" sketch:type="MSShapeGroup"></path>
                <path d="M45,13 C45.2029263,14.8840728 45.4297263,16.7929139 45.6804,18.7220199 C45.9316421,20.6550662 46.2067579,22.6095033 46.5063158,24.5813907 C46.8064421,26.5577815 47.1310105,28.5533113 47.4811579,30.5634768 C47.8318737,32.5792715 48.2081684,34.6113907 48.6100421,36.6547682 C49.1369684,39.3364901 49.6934526,41.9607947 50.2760842,44.522053 C50.8609895,47.0973841 51.4731789,49.6102318 52.1075368,52.0527152 C52.7458737,54.5103974 53.4075158,56.8988411 54.0896211,59.2096026 C54.7757053,61.5361258 55.4828211,63.7855298 56.2058526,65.9488079 C56.5190526,65.8992715 56.8339579,65.8756291 57.15,65.8773179 C57.4671789,65.8784437 57.7860632,65.9060265 58.1055158,65.9583775 C58.4261053,66.0107285 58.7472632,66.0884106 59.0689895,66.1914238 C59.3918526,66.2944371 59.7141474,66.4227815 60.0364421,66.575894 C59.3026105,64.8522517 58.5784421,63.0740066 57.8667789,61.2462252 C57.1602316,59.4313907 56.4661895,57.566457 55.7857895,55.6553642 C55.1105053,53.7572185 54.4488632,51.8129139 53.8037053,49.8252649 C53.1625263,47.8511258 52.5372632,45.8336424 51.9290526,43.7756291 C51.1355368,41.0877152 50.3960211,38.4133113 49.7105053,35.7631126 C49.0295368,33.1303642 48.4008632,30.5184437 47.8244842,27.9386093 C47.2509474,25.3728477 46.7285684,22.8357947 46.2573474,20.3387086 C45.7878316,17.8523179 45.3689053,15.4019536 45,13" id="Fill-7" fill="#F5F6F8" sketch:type="MSShapeGroup"></path>
                <path d="M107.1992,52.6544473 C106.784253,52.7219969 106.372147,52.7985532 105.962316,52.8835532 C105.551347,52.9685532 105.142653,53.0625598 104.736232,53.1644473 C104.328674,53.2663347 103.923958,53.3772287 103.521516,53.4954406 C103.117368,53.6147784 102.716063,53.741434 102.3176,53.8765334 L101,65.523785 C102.329537,64.0354406 103.7216,62.64054 105.1688,61.3464009 C106.592126,60.0736526 108.068316,58.8982883 109.590547,57.8259373 C111.088337,56.7710367 112.630463,55.8157718 114.211811,54.9652089 C115.767579,54.1281559 117.361432,53.3918645 118.987684,52.7625267 C118.0424,52.4754406 117.127242,52.2806724 116.218337,52.1596459 C115.304316,52.0380565 114.395979,51.9907718 113.469453,52.0014671 C112.536674,52.0115996 111.584568,52.0797122 110.588126,52.1883546 C109.583726,52.2975598 108.533284,52.4478579 107.411221,52.6206724 C107.3936,52.623487 107.375979,52.6263016 107.358358,52.6291161 C107.340737,52.6313678 107.323116,52.6341824 107.304926,52.6369969 C107.287305,52.6398115 107.269684,52.643189 107.252063,52.6460036 C107.234442,52.6488181 107.216821,52.6516327 107.1992,52.6544473" id="Fill-8" fill="#F5F6F8" sketch:type="MSShapeGroup"></path>
                <path d="M97.0892725,70 L80.0139041,78.402053 C79.784262,79.3359272 79.5921357,80.2827483 79.4380935,81.239702 C79.283483,82.2017219 79.168662,83.1744371 79.0953357,84.1544702 C79.0214409,85.1401325 78.9901778,86.1331126 79.002683,87.1317219 C79.0157567,88.1348344 79.0737357,89.1430132 79.1783251,90.1534437 C79.3346409,91.6643046 79.5904304,93.1340728 79.9388725,94.5571192 C80.2895883,95.9874834 80.7329567,97.3677483 81.263862,98.6928477 C81.7964725,100.02245 82.415483,101.294073 83.1140725,102.502086 C83.8143672,103.712351 84.5936725,104.857318 85.4445988,105.931358 C85.5128093,102.42553 85.8601146,98.9788079 86.458662,95.6266556 C87.0452725,92.3392384 87.8711883,89.1503311 88.9091251,86.0892053 C89.925462,83.0928146 91.1424514,80.2236424 92.5345146,77.505894 C93.8953146,74.8495033 95.4215251,72.340596 97.0892725,70" id="Fill-9" fill="#F5F6F8" sketch:type="MSShapeGroup"></path>
                <path d="M92.53,0 C93.0972842,2.09966887 93.5503158,4.27927152 93.9135368,6.53824503 C94.2807368,8.82423841 94.5569895,11.1963576 94.7673053,13.6529139 C94.9804632,16.1443709 95.1265474,18.7270199 95.2311368,21.3980464 C95.3374316,24.1118543 95.4005263,26.9207947 95.4477053,29.8198013 C95.5562737,36.5516887 95.0435579,41.9984437 94.1505684,46.5287748 C93.2285895,51.2082781 91.9075789,54.8779139 90.4598105,57.9750662 C88.9728211,61.1549669 87.3607789,63.7134106 85.9169895,66.1406954 C84.4413684,68.6220199 83.1476421,70.9569868 82.3438947,73.6792384 C82.3154737,73.7479139 82.2859158,73.8165894 82.2569263,73.8852649 C82.2279368,73.9539404 82.1983789,74.0226159 82.1693895,74.0912914 C82.1398316,74.1605298 82.1108421,74.2292053 82.0829895,74.2984437 C82.0545684,74.3676821 82.0267158,74.4369205 82,74.5067219 L98.1488421,66.8156291 L98.1499789,66.8009934 L98.1596421,66.7953642 C98.9878316,61.6683444 99.5147579,56.8655629 99.8114737,52.386457 C100.1008,48.0278146 100.174126,43.9506291 100.093979,40.1633444 C100.016105,36.4576821 99.7910105,33.0115232 99.4749684,29.8400662 C99.1646105,26.7220861 98.7650105,23.8557285 98.3296,21.2606954 C97.9993474,19.2983775 97.6253263,17.3777152 97.2103789,15.5009603 C96.7994105,13.6399669 96.3475158,11.8200662 95.8581053,10.0440728 C95.3726737,8.28102649 94.8497263,6.55907285 94.2926737,4.87990066 C93.7384632,3.21198675 93.1501474,1.58460265 92.53,0" id="Fill-10" fill="#B3C4D7" sketch:type="MSShapeGroup"></path>
            </g>
        </g>
    </g>
</svg>