<?xml version="1.0" encoding="UTF-8" standalone="no"?>
<svg width="13px" height="12px" viewBox="0 0 13 12" version="1.1" xmlns="http://www.w3.org/2000/svg" xmlns:xlink="http://www.w3.org/1999/xlink" xmlns:sketch="http://www.bohemiancoding.com/sketch/ns">
    <!-- Generator: Sketch 3.2.1 (9971) - http://www.bohemiancoding.com/sketch -->
    <title>Artboard 1</title>
    <desc>Created with Sketch.</desc>
    <defs></defs>
    <g id="Page-1" stroke="none" stroke-width="1" fill="none" fill-rule="evenodd" sketch:type="MSPage">
        <g id="Artboard-1" sketch:type="MSArtboardGroup" fill="#3B94F5">
            <g id="search" sketch:type="MSLayerGroup" transform="translate(2.000000, 0.500000)">
                <path d="M10.5336914,9.81640625 L9.81640625,10.5336914 L7.14404297,7.86132812 C6.39501579,8.44531542 5.54443835,8.73730469 4.59228516,8.73730469 C4.0421522,8.73730469 3.51424406,8.63256941 3.00854492,8.4230957 C2.50284578,8.213622 2.05322462,7.91422721 1.65966797,7.52490234 C1.27034311,7.13557748 0.970948313,6.68807219 0.761474609,6.18237305 C0.552000906,5.6766739 0.447265625,5.14664991 0.447265625,4.59228516 C0.447265625,4.03792041 0.552000906,3.50789641 0.761474609,3.00219727 C0.970948313,2.49649812 1.27034311,2.04899283 1.65966797,1.65966797 C2.05322462,1.27034311 2.50284578,0.970948313 3.00854492,0.761474609 C3.51424406,0.552000906 4.0421522,0.447265625 4.59228516,0.447265625 C5.14664991,0.447265625 5.6766739,0.552000906 6.18237305,0.761474609 C6.68807219,0.970948313 7.13557748,1.27034311 7.52490234,1.65966797 C7.918459,2.04899283 8.21996966,2.49649812 8.42944336,3.00219727 C8.63891706,3.50789641 8.74365234,4.03792041 8.74365234,4.59228516 C8.74365234,5.54020656 8.44954721,6.39078399 7.86132812,7.14404297 L10.5336914,9.81640625 Z M2.37060547,6.80761719 C2.98421531,7.42122703 3.7247678,7.72802734 4.59228516,7.72802734 C5.45980251,7.72802734 6.200355,7.42122703 6.81396484,6.80761719 C7.42334289,6.19823914 7.72802734,5.45980251 7.72802734,4.59228516 C7.72802734,3.72899959 7.42334289,2.9884471 6.81396484,2.37060547 C6.19612321,1.76122742 5.45557072,1.45654297 4.59228516,1.45654297 C3.7247678,1.45654297 2.98633117,1.76122742 2.37695312,2.37060547 C1.76334329,2.98421531 1.45654297,3.7247678 1.45654297,4.59228516 C1.45654297,5.45980251 1.76122742,6.19823914 2.37060547,6.80761719 L2.37060547,6.80761719 Z" id="🔎" sketch:type="MSShapeGroup"></path>
            </g>
        </g>
    </g>
</svg>