<svg width="10" height="15" xmlns="http://www.w3.org/2000/svg" xmlns:xlink="http://www.w3.org/1999/xlink"><defs><path d="M12.428 7.167H3.572a.24.24 0 01-.218-.155.277.277 0 01.04-.278l4.434-5.315a.231.231 0 01.177-.086c.068 0 .132.031.178.086l4.423 5.315a.277.277 0 01.04.278.24.24 0 01-.218.155z" id="a"/><path d="M3.572 9.5h8.856c.095 0 .18.06.218.154a.277.277 0 01-.04.279l-4.434 5.315a.231.231 0 01-.177.085.231.231 0 01-.178-.085L3.394 9.933a.277.277 0 01-.04-.279.24.24 0 01.218-.154z" id="c"/></defs><g fill="none" fill-rule="evenodd"><g transform="translate(-3 -1)"><mask id="b" fill="#fff"><use xlink:href="#a"/></mask><use fill="#D4D5D7" xlink:href="#a"/><g mask="url(#b)" fill="#D4D5D7"><path d="M0 0h16v16H0z"/></g></g><g transform="translate(-3 -1)"><mask id="d" fill="#fff"><use xlink:href="#c"/></mask><use fill="#D4D5D7" xlink:href="#c"/><g mask="url(#d)" fill="#1BBEA0"><path d="M0 0h16v16H0z"/><path d="M0 0h16v16H0z"/></g></g></g></svg>
