<svg width="225" height="293" viewBox="0 0 225 293" fill="none" xmlns="http://www.w3.org/2000/svg">
    <path d="M17 293H225C225 293 191.463 246 115.888 246C40.3124 246 17 293 17 293Z" fill="url(#paint0_linear_873_26894)"/>
    <rect x="114.01" y="22" width="42.335" height="42.335" rx="10" fill="#EFEEEE"/>
    <rect x="159.665" y="22" width="42.335" height="42.335" rx="10" fill="#EFEEEE"/>
    <rect x="159.665" y="67.6553" width="42.335" height="42.335" rx="10" fill="#EFEEEE"/>
    <rect x="114.01" y="67.6553" width="42.335" height="42.335" rx="10" fill="#EFEEEE"/>
    <path d="M124.801 31.9609C124.801 31.9609 138.083 45.2425 145.553 52.7134" stroke="#D4D5D7" stroke-width="6"/>
    <path d="M170.456 31.9609C170.456 31.9609 183.738 45.2425 191.209 52.7134" stroke="#D4D5D7" stroke-width="6"/>
    <path d="M170.456 77.6162C170.456 77.6162 183.738 90.8978 191.209 98.3686" stroke="#D4D5D7" stroke-width="6"/>
    <path d="M124.801 77.6162C124.801 77.6162 138.083 90.8978 145.553 98.3686" stroke="#D4D5D7" stroke-width="6"/>
    <path d="M145.969 32.376C145.969 32.376 132.687 45.6575 125.216 53.1284" stroke="#D4D5D7" stroke-width="6"/>
    <path d="M191.624 32.376C191.624 32.376 178.342 45.6575 170.871 53.1284" stroke="#D4D5D7" stroke-width="6"/>
    <path d="M191.624 78.0312C191.624 78.0312 178.342 91.3128 170.871 98.7837" stroke="#D4D5D7" stroke-width="6"/>
    <path d="M145.969 78.0312C145.969 78.0312 132.687 91.3128 125.216 98.7837" stroke="#D4D5D7" stroke-width="6"/>
    <rect x="31" y="22.8301" width="72.2184" height="86.3301" rx="10" fill="#F1F1F1"/>
    <rect x="40.1311" y="36.1113" width="53.9563" height="14.1117" rx="4" fill="white"/>
    <rect x="40.1311" y="57.6943" width="53.9563" height="14.1117" rx="4" fill="white"/>
    <rect x="40.1311" y="79.2764" width="53.9563" height="14.1117" rx="4" fill="white"/>
    <path
        d="M93.9012 60.1515L93.6344 50.9598C93.6344 50.9598 104.827 51.8492 107.221 50.608C107.221 50.608 110.147 35.5623 106.657 27.2303L106.586 26.9058L82.9679 24.1484L81.895 38.0279C81.0994 35.6862 74.2822 32.6767 72.5659 36.0303C68.8464 43.2972 82.1457 48.1902 82.1457 48.1902L80.7952 60.2621"
        fill="#E7A499"
    />
    <path
        opacity="0.403344"
        fill-rule="evenodd"
        clip-rule="evenodd"
        d="M93.6345 50.9597L86.0874 49.3447L93.5983 54.4082L93.6345 50.9597Z"
        fill="black"
    />
    <path
        fill-rule="evenodd"
        clip-rule="evenodd"
        d="M99.8599 35.9395L102.468 42.3024L99.3423 42.3421L99.8599 35.9395Z"
        fill="#19141E"
    />
    <path
        fill-rule="evenodd"
        clip-rule="evenodd"
        d="M96.8863 37.7473C97.0417 38.6042 96.4714 39.4244 95.613 39.5792C94.7543 39.7343 93.9324 39.1654 93.7772 38.3085C93.6218 37.4517 94.1921 36.6317 95.0506 36.4767C95.9092 36.3216 96.7312 36.8904 96.8863 37.7473Z"
        fill="#19141E"
    />
    <path
        fill-rule="evenodd"
        clip-rule="evenodd"
        d="M105.089 37.7473C105.244 38.6042 104.674 39.4244 103.815 39.5792C102.957 39.7343 102.135 39.1654 101.98 38.3085C101.824 37.4517 102.395 36.6317 103.253 36.4767C104.112 36.3216 104.934 36.8904 105.089 37.7473Z"
        fill="#19141E"
    />
    <path
        d="M84.1384 41.4494C84.0948 41.3427 84.0464 41.2322 83.9929 41.118C82.1898 37.2677 79.393 35.6498 77.5559 34.9784C76.552 33.4964 75.7606 31.839 75.4978 30.0933C74.6646 24.5702 76.1214 19.5221 79.3716 18.0754C82.6616 16.6108 90.4547 17.345 99.2052 17.345C109.712 17.345 110.291 16.3115 110.291 16.3115C110.291 16.3115 119.552 29.3521 102.453 28.973C93.4922 28.7743 88.3934 28.9985 88.3934 28.9985L84.1384 41.4494Z"
        fill="#19141E"
    />
    <path
        fill-rule="evenodd"
        clip-rule="evenodd"
        d="M97.8445 46.3955C97.8445 46.3955 99.4536 47.7129 101.451 46.8686L97.8445 46.3955Z"
        fill="white"
    />
    <path d="M97.8445 46.3955C97.8445 46.3955 99.4536 47.7129 101.451 46.8686" stroke="#8A625B" stroke-width="4"/>
    <path
        fill-rule="evenodd"
        clip-rule="evenodd"
        d="M95.1279 45.021C95.1279 45.021 95.9981 42.751 100.12 42.9212C104.241 43.0911 104.752 45.9039 104.752 45.9039L95.1279 45.021Z"
        fill="#19141E"
    />
    <path
        fill-rule="evenodd"
        clip-rule="evenodd"
        d="M99.9776 269.922L100.066 262.285L90.2538 257.325L88.8299 279.157H122.825C117.041 272.619 99.9776 269.922 99.9776 269.922ZM60.5129 270.22L60.6011 261.642L51.1934 268.241L49.6847 269.746L47.3577 279.157H70.6251C67.6997 271.161 60.5129 270.22 60.5129 270.22Z"
        fill="#2F2F3D"
    />
    <path
        fill-rule="evenodd"
        clip-rule="evenodd"
        d="M61.543 261.643L51.731 258.684L49.6846 269.746L60.5131 270.22L61.543 261.643ZM100.066 262.286L90.254 259.327L89.4632 269.448L99.9778 269.922L100.066 262.286Z"
        fill="#E7A499"
    />
    <path
        d="M70.9933 258.042H72.5336L71.5918 266.865H45.6479L46.5897 258.042H48.3063L67.6235 113.628L79.76 113.628L109.279 113.628L106.828 258.199H108.151V266.708H82.2073V258.199H83.6754L82.207 203.98L70.9933 258.042Z"
        fill="#2F2F3D"
    />
    <path
        opacity="0.200358"
        fill-rule="evenodd"
        clip-rule="evenodd"
        d="M81.7727 208.993L92.5827 139.076L82.7527 229.187L81.7727 208.993Z"
        fill="black"
    />
    <path
        fill-rule="evenodd"
        clip-rule="evenodd"
        d="M118.886 119.957C118.886 119.957 114.675 120.471 113.873 122.299C111.58 127.529 116.331 136.878 116.331 136.878C116.331 136.878 114.318 135.687 113.918 136.728C113.739 137.192 113.335 140.895 120.877 141.145C121.677 141.171 123.604 139.591 123.604 139.591C123.604 139.591 122.199 142.193 124.349 142.703C124.349 142.703 127.815 137.667 127.868 136.546C127.921 135.426 126.809 129.752 126.208 128.607C125.606 127.461 118.886 119.957 118.886 119.957ZM60.5067 126.411L59.1395 123.807L51.4346 122.947C50.8787 123.804 49.8288 125.816 49.3473 127.147C48.4145 129.725 48.3129 130.807 48.1558 132.48C48.1163 132.901 48.0733 133.359 48.0126 133.887C47.7631 136.065 47.7459 138.254 48.5945 141.167C49.14 143.039 49.7222 144.631 50.0255 144.564C50.7893 144.395 50.818 143.441 50.818 143.441L50.4582 141.668L50.295 139.938C50.295 139.938 53.0081 147.6 53.2379 147.558C54.0508 147.409 54.1803 146.066 54.1803 146.066C54.1803 146.066 55.03 148.71 55.4581 148.614C56.5467 148.371 56.4435 147.146 56.4435 147.146C56.4435 147.146 56.7871 147.439 57.051 147.364C58.0372 147.088 58.0074 145.388 57.9899 144.393C57.9885 144.314 57.9872 144.239 57.9865 144.169C57.9865 144.169 57.5503 141.037 57.6394 140.071C58.0936 135.151 58.8767 133.981 59.3058 133.339C59.3464 133.279 59.3838 133.223 59.4174 133.169C60.0912 133.615 60.3407 134.379 60.6055 135.19C60.7982 135.78 60.9989 136.394 61.3768 136.93C62.5264 138.559 65.7339 140.098 63.9409 136.365C62.945 134.293 62.6975 133.018 62.4678 131.834C62.333 131.14 62.2044 130.477 61.9346 129.703C61.2042 127.61 60.5067 126.411 60.5067 126.411Z"
        fill="#E7A499"
    />
    <path
        opacity="0.147531"
        d="M117.871 126.714C117.871 126.714 118.929 130.591 122.561 131.799C123.831 132.222 123.514 137.209 126.627 136.613"
        stroke="black"
        stroke-width="3"
    />
    <path
        fill-rule="evenodd"
        clip-rule="evenodd"
        d="M77.6576 60.6965L79.448 54.5234L88.3898 55.0785L91.4881 60.1523L94.5865 55.4621L96.8157 55.5993L97.5655 61.478C97.9668 61.6425 98.3495 61.807 98.7168 61.9715C99.2233 62.1992 99.6985 62.4237 100.146 62.6514L100.171 62.6638C105.78 65.5024 107.127 68.3955 108.75 71.8809C108.958 72.3275 109.17 72.7838 109.397 73.251C111.954 78.5147 114.603 94.6843 114.603 94.6843L125.702 122.595L112.095 130.148L108.75 123.686L108.834 115.06H88.9778L86.7767 115.057H67.2549L66.9641 104.436L63.4218 125.741L47.8706 126.474C47.8706 126.474 47.5642 104.286 50.525 91.4501C52.4103 83.2738 61.6209 68.0803 70.3438 62.8569C71.7383 62.0214 73.5891 61.4348 75.6558 61.0298C76.3048 60.9008 76.9748 60.7904 77.6576 60.6965ZM89.3481 117.266C89.3481 117.973 88.7741 118.546 88.0657 118.546C87.3572 118.546 86.7829 117.973 86.7829 117.266C86.7829 116.56 87.3572 115.987 88.0657 115.987C88.7741 115.987 89.3481 116.56 89.3481 117.266ZM102.174 118.617C102.883 118.617 103.457 118.044 103.457 117.338C103.457 116.631 102.883 116.058 102.174 116.058C101.466 116.058 100.892 116.631 100.892 117.338C100.892 118.044 101.466 118.617 102.174 118.617Z"
        fill="#58BBA1"
    />
    <path opacity="0.197266" d="M67.0312 106.836L69.8936 91.9299L76.9723 79.9678" stroke="black" stroke-width="2"/>
    <path opacity="0.195754" d="M108.209 115.122L109.561 93.4023" stroke="black" stroke-width="2"/>
    <path
        fill-rule="evenodd"
        clip-rule="evenodd"
        d="M86.406 56.333L83.9851 64.0671L90.4832 61.1829L86.406 56.333ZM96.0625 56.9536L92.1635 61.1074L97.381 64.1622L96.0625 56.9536Z"
        fill="#42947E"
    />
    <path
        opacity="0.198451"
        fill-rule="evenodd"
        clip-rule="evenodd"
        d="M61.8349 123.245C61.8349 123.934 61.275 124.493 60.5843 124.493C59.8937 124.493 59.3337 123.934 59.3337 123.245C59.3337 122.557 59.8937 121.998 60.5843 121.998C61.275 121.998 61.8349 122.557 61.8349 123.245Z"
        fill="black"
    />
    <path
        opacity="0.199033"
        fill-rule="evenodd"
        clip-rule="evenodd"
        d="M123.499 121.614C123.499 122.303 122.939 122.861 122.249 122.861C121.558 122.861 120.998 122.303 120.998 121.614C120.998 120.925 121.558 120.366 122.249 120.366C122.939 120.366 123.499 120.925 123.499 121.614Z"
        fill="black"
    />
    <path opacity="0.202567" d="M47.863 119.742L64.4741 119.007" stroke="black" stroke-width="2"/>
    <path opacity="0.198684" d="M108.834 123.981L123.135 116.137" stroke="black" stroke-width="2"/>
    <path
        opacity="0.197661"
        fill-rule="evenodd"
        clip-rule="evenodd"
        d="M88.9778 115.06L86.7767 115.057C86.6485 88.4659 82.2808 70.7249 75.6558 61.0296V61.0265L77.8881 60.5088C77.9225 60.5556 77.9569 60.6023 77.9881 60.6522C84.7539 70.1324 89.231 87.7829 88.9778 115.06Z"
        fill="black"
    />
    <path
        opacity="0.196777"
        fill-rule="evenodd"
        clip-rule="evenodd"
        d="M103.816 115.061H101.574C104.72 89.483 102.731 71.7857 97.56 61.476C97.5506 61.4511 97.5381 61.4292 97.5256 61.4043L98.7168 61.9719L100.146 62.6517L100.171 62.6642C105.573 72.715 107.396 88.9248 103.816 115.061Z"
        fill="black"
    />
    <defs>
        <linearGradient id="paint0_linear_873_26894" x1="121" y1="246" x2="121" y2="293" gradientUnits="userSpaceOnUse">
            <stop stop-color="#F8F8F8"/>
            <stop offset="1" stop-color="#F8F8F8" stop-opacity="0"/>
        </linearGradient>
    </defs>
</svg>
